<svg width="295" height="113" viewBox="0 0 295 113" fill="none" xmlns="http://www.w3.org/2000/svg">
<path d="M47.4375 41.625L46.9688 24.75H3.75V27.1875H11.25V78.5625H3.75V81H46.9688L47.4375 64.125H45.5625L44.25 68.5312C42.6875 73.8438 40.375 77.0312 37.3125 78.0938C36.375 78.4062 35.375 78.5625 34.3125 78.5625H19.3125V53.3438H38.625V50.625H19.3125V27.1875H34.3125C38.8125 27.1875 42.0312 30.2188 43.9688 36.2812C44.0938 36.6562 44.1875 36.9688 44.25 37.2188L45.5625 41.625H47.4375ZM96.9375 81L97.4062 62.25H95.5312L93.9375 68.5312C92.4375 74.2812 89.9375 77.5625 86.4375 78.375C85.6875 78.5 84.9688 78.5625 84.2812 78.5625H71.4375V27.1875H79.3125V24.75H55.875V27.1875H63.375V78.5625H55.875V81H96.9375ZM143.156 81L143.625 62.25H141.75L140.156 68.5312C138.656 74.2812 136.156 77.5625 132.656 78.375C131.906 78.5 131.188 78.5625 130.5 78.5625H117.656V27.1875H125.531V24.75H102.094V27.1875H109.594V78.5625H102.094V81H143.156ZM171.281 81C171.281 79.625 170.781 78.8438 169.781 78.6562C169.469 78.5938 169.156 78.5625 168.844 78.5625H163.875V27.1875H171.281V24.75H148.312V27.1875H155.812V78.5625H148.312V81H171.281ZM280.688 81C280.688 79.625 280.188 78.8438 279.188 78.6562C278.875 78.5938 278.562 78.5625 278.25 78.5625H271.875V27.1875H277.312C282.375 27.1875 285.75 30.25 287.438 36.375C287.438 36.625 287.469 36.8125 287.531 36.9375L289.031 43.2188H291.656L291.188 24.75H244.875L244.406 43.2188H247.031L248.531 36.9375C250.531 30.8125 253.938 27.5625 258.75 27.1875H263.812V78.5625H254.906V81H280.688Z" fill="black"/>
<path d="M208.312 23.8125C200.812 23.8125 194.375 26.2813 189 31.2188C183.125 36.6562 180.188 43.75 180.188 52.5C180.188 62.625 183.656 70.4375 190.594 75.9375C195.656 79.9375 201.469 81.9375 208.031 81.9375C215.406 81.9375 221.75 79.4375 227.062 74.4375C233 68.875 235.969 61.6875 235.969 52.875C235.969 42.5625 232.375 34.7188 225.188 29.3438C220.312 25.6562 214.688 23.8125 208.312 23.8125ZM208.312 79.3125C199.25 79.3125 193.438 74.4688 190.875 64.7812C190 61.3438 189.562 57.375 189.562 52.875C189.562 38 194.062 29.375 203.062 27C204.625 26.625 206.281 26.4375 208.031 26.4375C220.344 26.5625 226.531 35.25 226.594 52.5C226.594 66.125 222.812 74.5938 215.25 77.9062C213.125 78.8438 210.812 79.3125 208.312 79.3125Z" fill="#FF7A00"/>
<line x1="208.5" y1="34" x2="208.5" y2="57" stroke="black"/>
<line x1="208" y1="56.5" x2="223" y2="56.5" stroke="black"/>
</svg>
